<svg width="29" height="29" viewBox="0 0 29 29" fill="none" xmlns="http://www.w3.org/2000/svg">
<path fill-rule="evenodd" clip-rule="evenodd" d="M6 3H23C24.65 3 26 4.35 26 6V23C26 24.65 24.65 26 23 26H6C4.35 26 3 24.65 3 23V6C3 4.35 4.35 3 6 3ZM24 6C24 5.458 23.542 5 23 5H6C5.458 5 5 5.458 5 6V23C5 23.542 5.458 24 6 24H23C23.542 24 24 23.542 24 23V6Z" fill="white"/>
<path fill-rule="evenodd" clip-rule="evenodd" d="M3.78261 0H25.2174C27.2978 0 29 1.70217 29 3.78261V25.2174C29 27.2978 27.2978 29 25.2174 29H3.78261C1.70217 29 0 27.2978 0 25.2174V3.78261C0 1.70217 1.70217 0 3.78261 0ZM26.4782 3.78263C26.4782 3.09923 25.9008 2.52176 25.2174 2.52176H3.7826C3.09921 2.52176 2.52173 3.09923 2.52173 3.78263V25.2174C2.52173 25.9008 3.09921 26.4783 3.7826 26.4783H25.2174C25.9008 26.4783 26.4782 25.9008 26.4782 25.2174V3.78263Z" fill="#2CB3FF"/>
</svg>
